<?xml version="1.0" encoding="utf-8"?>
<svg viewBox="0 0 960 540" xmlns="http://www.w3.org/2000/svg">
  <rect width="960" height="540" fill="#001220"/>
  <path d="M 0 194 C 17.639 194.03 17.58 193.399 10 194 C 58.106 197.056 91.3 170.3 137 161.3 C 182.7 152.3 228.3 140.7 274 141.2 C 319.7 141.7 365.3 154.3 411.2 167 C 457 179.7 503 192.3 548.8 188.8 C 594.7 185.3 640.3 165.7 686 158 C 731.7 150.3 777.3 154.7 823 162.7 C 868.7 170.7 906.466 189.69 950 194 L 960 194 L 960 0 L 937.2 0 C 914.3 0 868.7 0 823 0 C 777.3 0 731.7 0 686 0 C 640.3 0 594.7 0 548.8 0 C 503 0 457 0 411.2 0 C 365.3 0 319.7 0 274 0 C 228.3 0 182.7 0 137 0 C 91.3 0 45.7 0 22.8 0 L 0 0 L 0 194 Z" fill="#164b63"/>
  <path d="M 0 113 L 10 113 C 64.454 114.398 91.3 147.7 137 157.7 C 182.7 167.7 228.3 170.3 274 160.3 C 319.7 150.3 365.3 127.7 411.2 123 C 457 118.3 503 131.7 548.8 135 C 594.7 138.3 640.3 131.7 686 130 C 731.7 128.3 777.3 131.7 823 129.8 C 868.7 128 914.545 116.246 950 113 L 960 113 L 960 0 L 937.2 0 C 914.3 0 868.7 0 823 0 C 777.3 0 731.7 0 686 0 C 640.3 0 594.7 0 548.8 0 C 503 0 457 0 411.2 0 C 365.3 0 319.7 0 274 0 C 228.3 0 182.7 0 137 0 C 91.3 0 45.7 0 22.8 0 L 0 0 L 0 113 Z" fill="#26789f"/>
  <path d="M 0 72 L 10 72 C 54.037 71.631 91.3 105.3 137 105.7 C 182.7 106 228.3 90 274 82.5 C 319.7 75 365.3 76 411.2 76 C 457 76 504.913 94.333 548.914 81.467 C 621.178 60.336 650.447 72.789 686.114 82.467 C 721.781 92.145 777.3 95 823 94.3 C 868.7 93.7 876.339 72.705 950 72 L 960 72 L 960 0 L 937.2 0 C 914.3 0 868.7 0 823 0 C 777.3 0 731.7 0 686 0 C 640.3 0 594.7 0 548.8 0 C 503 0 457 0 411.2 0 C 365.3 0 319.7 0 274 0 C 228.3 0 182.7 0 137 0 C 91.3 0 45.7 0 22.8 0 L 0 0 L 0 72 Z" fill="#2f97c8"/>
  <path d="M 30.623 45.346 L 72.167 36.847 C 95.207 34.883 90.395 32.406 136.375 35.057 C 182.354 37.61 228.233 46.841 274.212 53.715 C 320.192 60.589 366.07 65.106 412.251 60.883 C 458.33 56.661 504.612 43.502 550.694 39.083 C 596.873 34.664 642.753 38.985 688.732 39.771 C 734.711 40.556 780.59 38.003 826.57 38.592 C 872.549 39.28 918.428 43.208 953.194 47.626 L 963.244 47.626 L 963.244 0 L 941.468 0 C 918.428 0 872.549 0 826.57 0 C 780.59 0 734.711 0 688.732 0 C 642.753 0 596.873 0 550.694 0 C 504.612 0 458.33 0 412.251 0 C 366.07 0 320.192 0 274.212 0 C 228.233 0 182.354 0 136.375 0 C 90.395 0 44.516 0 21.477 0 L -1.464 0 L -1.507 47.135 L -1.707 47.135 L -1.004 47.626 L -10.834 47.626 L 8.344 47.626 L 30.623 45.346 Z" fill="#39b7f2" style=""/>
</svg>