<svg id="visual" viewBox="0 0 900 600" width="900" height="600" xmlns="http://www.w3.org/2000/svg" xmlns:xlink="http://www.w3.org/1999/xlink" version="1.1"><rect x="0" y="0" width="900" height="600" fill="#001220"></rect><path d="M0 186L21.5 181.5C43 177 86 168 128.8 163.7C171.7 159.3 214.3 159.7 257.2 156.7C300 153.7 343 147.3 385.8 147.3C428.7 147.3 471.3 153.7 514.2 155.7C557 157.7 600 155.3 642.8 149.8C685.7 144.3 728.3 135.7 771.2 134.2C814 132.7 857 138.3 878.5 141.2L900 144L900 0L878.5 0C857 0 814 0 771.2 0C728.3 0 685.7 0 642.8 0C600 0 557 0 514.2 0C471.3 0 428.7 0 385.8 0C343 0 300 0 257.2 0C214.3 0 171.7 0 128.8 0C86 0 43 0 21.5 0L0 0Z" fill="#d33939"></path><path d="M0 116L21.5 120.5C43 125 86 134 128.8 130.2C171.7 126.3 214.3 109.7 257.2 101.5C300 93.3 343 93.7 385.8 99C428.7 104.3 471.3 114.7 514.2 118.5C557 122.3 600 119.7 642.8 118.2C685.7 116.7 728.3 116.3 771.2 113C814 109.7 857 103.3 878.5 100.2L900 97L900 0L878.5 0C857 0 814 0 771.2 0C728.3 0 685.7 0 642.8 0C600 0 557 0 514.2 0C471.3 0 428.7 0 385.8 0C343 0 300 0 257.2 0C214.3 0 171.7 0 128.8 0C86 0 43 0 21.5 0L0 0Z" fill="#d56542"></path><path d="M0 92L21.5 93.8C43 95.7 86 99.3 128.8 97.2C171.7 95 214.3 87 257.2 81.3C300 75.7 343 72.3 385.8 75.2C428.7 78 471.3 87 514.2 89.5C557 92 600 88 642.8 83.5C685.7 79 728.3 74 771.2 71.7C814 69.3 857 69.7 878.5 69.8L900 70L900 0L878.5 0C857 0 814 0 771.2 0C728.3 0 685.7 0 642.8 0C600 0 557 0 514.2 0C471.3 0 428.7 0 385.8 0C343 0 300 0 257.2 0C214.3 0 171.7 0 128.8 0C86 0 43 0 21.5 0L0 0Z" fill="#d58657"></path><path d="M0 65L21.5 63.3C43 61.7 86 58.3 128.8 57.8C171.7 57.3 214.3 59.7 257.2 58.7C300 57.7 343 53.3 385.8 52.5C428.7 51.7 471.3 54.3 514.2 53.5C557 52.7 600 48.3 642.8 48C685.7 47.7 728.3 51.3 771.2 52C814 52.7 857 50.3 878.5 49.2L900 48L900 0L878.5 0C857 0 814 0 771.2 0C728.3 0 685.7 0 642.8 0C600 0 557 0 514.2 0C471.3 0 428.7 0 385.8 0C343 0 300 0 257.2 0C214.3 0 171.7 0 128.8 0C86 0 43 0 21.5 0L0 0Z" fill="#d6a475"></path></svg>