<svg id="visual" viewBox="0 0 3000 600" width="3000" height="600" xmlns="http://www.w3.org/2000/svg" xmlns:xlink="http://www.w3.org/1999/xlink" version="1.1"><rect x="0" y="0" width="3000" height="600" fill="#001220"></rect><path d="M0 141L71.5 143C143 145 286 149 428.8 151.2C571.7 153.3 714.3 153.7 857.2 150.7C1000 147.7 1143 141.3 1285.8 148.3C1428.7 155.3 1571.3 175.7 1714.2 180.3C1857 185 2000 174 2142.8 165C2285.7 156 2428.3 149 2571.2 143.2C2714 137.3 2857 132.7 2928.5 130.3L3000 128L3000 0L2928.5 0C2857 0 2714 0 2571.2 0C2428.3 0 2285.7 0 2142.8 0C2000 0 1857 0 1714.2 0C1571.3 0 1428.7 0 1285.8 0C1143 0 1000 0 857.2 0C714.3 0 571.7 0 428.8 0C286 0 143 0 71.5 0L0 0Z" fill="#ff4b3e"></path><path d="M0 115L71.5 121C143 127 286 139 428.8 141C571.7 143 714.3 135 857.2 125.5C1000 116 1143 105 1285.8 104.3C1428.7 103.7 1571.3 113.3 1714.2 118.3C1857 123.3 2000 123.7 2142.8 125.2C2285.7 126.7 2428.3 129.3 2571.2 135.7C2714 142 2857 152 2928.5 157L3000 162L3000 0L2928.5 0C2857 0 2714 0 2571.2 0C2428.3 0 2285.7 0 2142.8 0C2000 0 1857 0 1714.2 0C1571.3 0 1428.7 0 1285.8 0C1143 0 1000 0 857.2 0C714.3 0 571.7 0 428.8 0C286 0 143 0 71.5 0L0 0Z" fill="#f2663f"></path><path d="M0 105L71.5 100.5C143 96 286 87 428.8 85.7C571.7 84.3 714.3 90.7 857.2 90.7C1000 90.7 1143 84.3 1285.8 83.8C1428.7 83.3 1571.3 88.7 1714.2 96.7C1857 104.7 2000 115.3 2142.8 114.3C2285.7 113.3 2428.3 100.7 2571.2 94.5C2714 88.3 2857 88.7 2928.5 88.8L3000 89L3000 0L2928.5 0C2857 0 2714 0 2571.2 0C2428.3 0 2285.7 0 2142.8 0C2000 0 1857 0 1714.2 0C1571.3 0 1428.7 0 1285.8 0C1143 0 1000 0 857.2 0C714.3 0 571.7 0 428.8 0C286 0 143 0 71.5 0L0 0Z" fill="#e57a47"></path><path d="M0 56L71.5 55.3C143 54.7 286 53.3 428.8 55.5C571.7 57.7 714.3 63.3 857.2 63.2C1000 63 1143 57 1285.8 59.8C1428.7 62.7 1571.3 74.3 1714.2 77.7C1857 81 2000 76 2142.8 76.3C2285.7 76.7 2428.3 82.3 2571.2 78.8C2714 75.3 2857 62.7 2928.5 56.3L3000 50L3000 0L2928.5 0C2857 0 2714 0 2571.2 0C2428.3 0 2285.7 0 2142.8 0C2000 0 1857 0 1714.2 0C1571.3 0 1428.7 0 1285.8 0C1143 0 1000 0 857.2 0C714.3 0 571.7 0 428.8 0C286 0 143 0 71.5 0L0 0Z" fill="#d88a55"></path><path d="M0 57L71.5 51.5C143 46 286 35 428.8 31C571.7 27 714.3 30 857.2 30.3C1000 30.7 1143 28.3 1285.8 30.5C1428.7 32.7 1571.3 39.3 1714.2 42.5C1857 45.7 2000 45.3 2142.8 44.7C2285.7 44 2428.3 43 2571.2 42.7C2714 42.3 2857 42.7 2928.5 42.8L3000 43L3000 0L2928.5 0C2857 0 2714 0 2571.2 0C2428.3 0 2285.7 0 2142.8 0C2000 0 1857 0 1714.2 0C1571.3 0 1428.7 0 1285.8 0C1143 0 1000 0 857.2 0C714.3 0 571.7 0 428.8 0C286 0 143 0 71.5 0L0 0Z" fill="#cc9767"></path></svg>